<?xml version="1.0" encoding="UTF-8"?>
<svg id="Layer_1" xmlns="http://www.w3.org/2000/svg" version="1.1" viewBox="0 0 1200 1200">
  <!-- Generator: Adobe Illustrator 29.6.1, SVG Export Plug-In . SVG Version: 2.1.1 Build 9)  -->
  <defs>
    <style>
      .st0 {
        fill: #231f20;
      }
    </style>
  </defs>
  <path class="st0" d="M978.09,550h-25.62c-1.77-12.6-4.19-25.07-7.3-37.37l23.66-9.69c12.33-5.05,18.23-19.14,13.18-31.46l-19.62-47.89c-5.05-12.33-19.14-18.23-31.46-13.18l-23.69,9.71c-6.89-11.76-14.43-23.1-22.64-33.99l18.12-18.12c9.42-9.42,9.42-24.69,0-34.11l-36.6-36.6c-9.42-9.42-24.69-9.42-34.11,0l-18.12,18.12c-10.15-7.65-20.7-14.73-31.6-21.23l9.89-23.61c5.15-12.29-.64-26.42-12.93-31.57l-47.74-19.99c-12.29-5.15-26.42.64-31.57,12.93l-9.88,23.59c-12.73-3.32-25.63-5.93-38.68-7.81l.1-25.61c.05-13.32-10.71-24.16-24.03-24.21l-51.76-.2c-13.32-.05-24.16,10.71-24.22,24.03l-.1,25.62c-13.07,1.78-25.99,4.27-38.74,7.49l-9.69-23.66c-5.05-12.33-19.14-18.23-31.46-13.18l-47.89,19.62c-12.33,5.05-18.23,19.14-13.18,31.46l9.71,23.69c-11.76,6.89-23.1,14.43-33.99,22.64l-18.12-18.12c-9.42-9.42-24.69-9.42-34.11,0l-36.6,36.6c-9.42,9.42-9.42,24.69,0,34.11l18.12,18.12c-7.65,10.15-14.73,20.7-21.23,31.6l-23.61-9.89c-12.29-5.15-26.42.64-31.57,12.93l-19.99,47.74c-5.15,12.29.64,26.42,12.93,31.57l23.59,9.88c-3.44,13.17-6.11,26.53-8,40.05h-25.62c-13.32,0-24.12,10.8-24.12,24.12v51.76c0,13.32,10.8,24.12,24.12,24.12h25.62c1.77,12.6,4.19,25.07,7.3,37.37l-23.66,9.69c-12.33,5.05-18.23,19.14-13.18,31.46l19.62,47.9c5.05,12.33,19.14,18.23,31.46,13.18l23.69-9.71c6.89,11.76,14.43,23.1,22.64,33.99l-18.12,18.12c-9.42,9.42-9.42,24.69,0,34.11l36.6,36.6c9.42,9.42,24.69,9.42,34.11,0l18.12-18.12c10.15,7.65,20.7,14.73,31.6,21.23l-9.89,23.61c-5.15,12.29.64,26.42,12.93,31.57l47.74,19.99c12.29,5.15,26.42-.64,31.57-12.93l9.88-23.59c12.73,3.32,25.63,5.93,38.68,7.81l-.1,25.61c-.05,13.32,10.71,24.16,24.03,24.21l51.76.2c13.32.05,24.16-10.71,24.21-24.03l.1-25.62c13.07-1.78,25.99-4.27,38.74-7.49l9.69,23.66c5.05,12.33,19.14,18.23,31.46,13.18l47.9-19.62c12.33-5.05,18.23-19.14,13.18-31.46l-9.71-23.69c11.76-6.89,23.1-14.43,33.99-22.64l18.12,18.12c9.42,9.42,24.69,9.42,34.11,0l36.6-36.6c9.42-9.42,9.42-24.69,0-34.11l-18.12-18.12c7.65-10.15,14.73-20.7,21.23-31.6l23.61,9.89c12.29,5.15,26.42-.64,31.57-12.93l19.99-47.74c5.15-12.29-.64-26.42-12.93-31.57l-23.59-9.88c3.44-13.17,6.11-26.53,8-40.05h25.62c13.32,0,24.12-10.8,24.12-24.12v-51.76c0-13.32-10.8-24.12-24.12-24.12ZM600,881.08c-155.23,0-281.08-125.84-281.08-281.08s125.84-281.08,281.08-281.08,281.08,125.84,281.08,281.08-125.84,281.08-281.08,281.08Z"/>
</svg>